<svg width="16" height="16" viewBox="0 0 16 16" fill="none" xmlns="http://www.w3.org/2000/svg">
<path d="M13.5447 1.32631C12.5249 0.712427 11.4313 0.260134 10.2879 0.00108597C10.2671 -0.00391174 10.2463 0.00858254 10.2356 0.0335711C10.0949 0.361754 9.93917 0.789891 9.83006 1.1264C8.60027 0.884848 7.37678 0.884848 6.17221 1.1264C6.0631 0.782395 5.90165 0.361754 5.76039 0.0335711C5.74966 0.00941549 5.72885 -0.00307878 5.70804 0.00108597C4.56528 0.259301 3.47171 0.711594 2.45129 1.32631C2.44246 1.33131 2.43489 1.33964 2.42985 1.35047C0.355595 5.4161 -0.212633 9.38179 0.0661201 13.2983C0.0673814 13.3175 0.07558 13.3358 0.086932 13.3475C1.45547 14.666 2.78113 15.4665 4.08219 15.9971C4.103 16.0054 4.12507 15.9954 4.13832 15.9729C4.44608 15.4215 4.72042 14.8401 4.95566 14.2287C4.96953 14.1929 4.95629 14.1504 4.92791 14.1363C4.49275 13.9197 4.07841 13.6557 3.67983 13.3558C3.64829 13.3316 3.64577 13.2725 3.67478 13.2442C3.75866 13.1617 3.84254 13.0759 3.92263 12.9893C3.93714 12.9735 3.95732 12.9701 3.97435 12.9801C6.59286 14.5486 9.4277 14.5486 12.0153 12.9801C12.0323 12.9693 12.0525 12.9726 12.0677 12.9885C12.1478 13.0751 12.2316 13.1617 12.3161 13.2442C12.3451 13.2725 12.3433 13.3316 12.3117 13.3558C11.9131 13.6615 11.4988 13.9197 11.063 14.1354C11.0346 14.1496 11.022 14.1929 11.0359 14.2287C11.2762 14.8393 11.5505 15.4207 11.8526 15.9721C11.8652 15.9954 11.8879 16.0054 11.9087 15.9971C13.2161 15.4665 14.5418 14.666 15.9103 13.3475C15.9223 13.3358 15.9298 13.3183 15.9311 13.2992C16.2647 8.77123 15.3723 4.83804 13.5655 1.3513C13.5611 1.33964 13.5535 1.33131 13.5447 1.32631ZM5.34667 10.9136C4.55834 10.9136 3.90876 9.96402 3.90876 8.79789C3.90876 7.63176 4.54573 6.68219 5.34667 6.68219C6.15392 6.68219 6.7972 7.64009 6.78458 8.79789C6.78458 9.96402 6.14761 10.9136 5.34667 10.9136ZM10.6632 10.9136C9.87484 10.9136 9.22525 9.96402 9.22525 8.79789C9.22525 7.63176 9.86222 6.68219 10.6632 6.68219C11.4704 6.68219 12.1137 7.64009 12.1011 8.79789C12.1011 9.96402 11.4704 10.9136 10.6632 10.9136Z" fill="#FF41AE"/>
</svg>
