<svg width="16" height="18" viewBox="0 0 16 18" fill="none" xmlns="http://www.w3.org/2000/svg">
<path d="M8.00315 6.40635C6.01565 6.40635 4.41252 8.00947 4.41252 9.99697C4.41252 11.9845 6.01565 13.5876 8.00315 13.5876C9.99065 13.5876 11.5938 11.9845 11.5938 9.99697C11.5938 8.00947 9.99065 6.40635 8.00315 6.40635ZM8.00315 12.3313C6.71877 12.3313 5.66877 11.2845 5.66877 9.99697C5.66877 8.70947 6.71565 7.6626 8.00315 7.6626C9.29065 7.6626 10.3375 8.70947 10.3375 9.99697C10.3375 11.2845 9.28752 12.3313 8.00315 12.3313ZM12.5781 6.25947C12.5781 6.7251 12.2031 7.09697 11.7407 7.09697C11.275 7.09697 10.9031 6.72197 10.9031 6.25947C10.9031 5.79697 11.2782 5.42197 11.7407 5.42197C12.2031 5.42197 12.5781 5.79697 12.5781 6.25947ZM14.9563 7.10947C14.9031 5.9876 14.6469 4.99385 13.825 4.1751C13.0063 3.35635 12.0125 3.1001 10.8906 3.04385C9.7344 2.97822 6.26877 2.97822 5.11252 3.04385C3.99377 3.09697 3.00002 3.35322 2.17815 4.17197C1.35627 4.99072 1.10315 5.98447 1.0469 7.10635C0.981274 8.2626 0.981274 11.7282 1.0469 12.8845C1.10002 14.0063 1.35627 15.0001 2.17815 15.8188C3.00002 16.6376 3.99065 16.8938 5.11252 16.9501C6.26877 17.0157 9.7344 17.0157 10.8906 16.9501C12.0125 16.897 13.0063 16.6407 13.825 15.8188C14.6438 15.0001 14.9 14.0063 14.9563 12.8845C15.0219 11.7282 15.0219 8.26572 14.9563 7.10947ZM13.4625 14.1251C13.2188 14.7376 12.7469 15.2095 12.1313 15.4563C11.2094 15.822 9.0219 15.7376 8.00315 15.7376C6.9844 15.7376 4.79377 15.8188 3.87502 15.4563C3.26252 15.2126 2.79065 14.7407 2.54377 14.1251C2.17815 13.2032 2.26252 11.0157 2.26252 9.99697C2.26252 8.97822 2.18127 6.7876 2.54377 5.86885C2.78752 5.25635 3.2594 4.78447 3.87502 4.5376C4.7969 4.17197 6.9844 4.25635 8.00315 4.25635C9.0219 4.25635 11.2125 4.1751 12.1313 4.5376C12.7438 4.78135 13.2156 5.25322 13.4625 5.86885C13.8281 6.79072 13.7438 8.97822 13.7438 9.99697C13.7438 11.0157 13.8281 13.2063 13.4625 14.1251Z" fill="#FF41AE"/>
</svg>
